<svg id="&#x421;&#x43B;&#x43E;&#x439;_1" enable-background="new 0 0 100 100" viewBox="0 0 100 100" xmlns="http://www.w3.org/2000/svg"><g><path d="m50.303.345c-11.428-1.677-18.378 2.983-22.196 7.186-6.093 6.704-8.234 16.803-6.786 22.694.33 1.341 1.685 2.161 3.025 1.831 1.341-.33 2.16-1.684 1.831-3.025-.969-3.94.448-12.435 5.63-18.137 4.367-4.806 10.344-6.691 17.771-5.601 17.614 2.583 25.499 20.083 25.499 36.28 0 12.635-4.263 23.459-13.822 35.095l-1.231 1.502c-8.01 9.782-14.924 18.231-23.52 16.627-11.985-2.24-11.587-15.556-11.564-16.115.063-1.379-1.004-2.549-2.383-2.611-1.399-.074-2.549 1.003-2.612 2.383-.288 6.288 2.609 18.823 15.641 21.258 1.067.2 2.105.295 3.118.295 9.903 0 17.35-9.094 25.189-18.669l1.226-1.495c10.346-12.593 14.959-24.396 14.959-38.269-.002-18.349-9.208-38.211-29.775-41.229z"/><path d="m27.79 74.057c1.067.764 2.088 1.07 3.051 1.069 2.478 0 4.577-2.027 6.11-3.509 1.561-1.509 3.175-3.068 5.05-3.416 8.032-1.492 13.19-6.093 15.332-13.675 1.369-4.848.833-9.001-1.592-12.344-4.51-6.213-14.272-7.46-18.797-7.699-1.565-4.041-1.911-8.325-.09-12.101 1.643-3.406 3.988-5.645 6.783-6.473 3.042-.902 6.625-.179 10.359 2.087 11.086 6.727 12.118 26.603 7.958 37.33-2.372 6.116-3.903 9.219-8.611 13.254-1.049.898-1.17 2.478-.271 3.525.495.577 1.195.873 1.899.873.576 0 1.154-.198 1.626-.602 5.739-4.92 7.614-9.041 10.02-15.242 4.789-12.351 3.975-34.917-10.026-43.413-4.972-3.017-9.941-3.92-14.374-2.607-4.183 1.239-7.595 4.384-9.867 9.095-4.492 9.313.493 20.477 7.426 27.41.977.976 2.559.976 3.536 0 .976-.976.976-2.559 0-3.536-1.29-1.29-2.496-2.753-3.562-4.317 3.907.523 9.417 1.868 11.944 5.351 1.501 2.069 1.771 4.702.826 8.048-1.603 5.677-5.343 8.987-11.432 10.118-3.354.622-5.715 2.903-7.612 4.736-.789.763-2.11 2.039-2.569 2.087 0-.001-.068-.018-.208-.118-.832-.595-1.048-.954.35-3.976.72-1.557 1.465-3.166 1.186-4.864-.898-5.473-.042-6.766.242-7.031.21-.196.776-.21 1.515-.04 1.189.277 1.626.957 1.783 1.479.161.535.032.957-.05 1.046-1.042.903-1.156 2.48-.254 3.524.902 1.046 2.482 1.16 3.526.257 1.563-1.351 2.214-3.68 1.657-5.935-.648-2.628-2.716-4.587-5.53-5.242-3.126-.726-5.022.284-6.064 1.26-2.8 2.623-2.411 7.519-1.765 11.421-.009.352-.475 1.358-.784 2.024-1.121 2.427-3.207 6.937 1.279 10.146z"/></g></svg>